# xmcd CD database file
#
# Track frame offsets:
#	150
#	32603
#	62284
#	96647
#	144885
#	179085
#	209908
#	243974
#	272929
#
# Disc length: 4244 seconds
#
# Revision: 1
# Processed by: cddbd v1.5.2PL0 Copyright (c) Steve Scherf et al.
# Submitted via: CDex 1.70beta2
#
DISCID=88109209
DTITLE=Jazz Orchestra Of The Concertgebouw Featuring Jesse Van Ruller - Silk Rush
DYEAR=2008
DGENRE=Jazz
TTITLE0=Silk Rush
TTITLE1=Here Comes The Sun
TTITLE2=Amsterdam
TTITLE3=Vienna Night Express
TTITLE4=The Ruler
TTITLE5=Have A Heart
TTITLE6=Circles
TTITLE7=M.M.
TTITLE8=The Secret Champ
EXTD=YEAR: 2008
EXTT0=
EXTT1=
EXTT2=
EXTT3=
EXTT4=
EXTT5=
EXTT6=
EXTT7=
EXTT8=
PLAYORDER=
